<?xml version="1.0" encoding="utf-8"?>
<!-- Generator: Adobe Illustrator 23.0.3, SVG Export Plug-In . SVG Version: 6.00 Build 0)  -->
<svg version="1.1" id="Layer_1" xmlns="http://www.w3.org/2000/svg" xmlns:xlink="http://www.w3.org/1999/xlink" x="0px" y="0px"
	 viewBox="0 0 814.5 252" style="enable-background:new 0 0 814.5 252;" xml:space="preserve">
<style type="text/css">
	.st0{fill-rule:evenodd;clip-rule:evenodd;fill:#FFFFFF;}
	.st1{fill:#FFFFFF;}
</style>
<g>
	<path class="st0" d="M118.3,56.1H51.2v64.2c0-31.5,25-57.1,55.8-57.1c17.1,0,32.4,7.9,42.6,20.3c-7.6-5.3-16.9-8.4-27-8.4
		c-25.6,0-46.4,20-46.4,44.6c0,1.2,0,2.3,0.1,3.5h-25c0-1-0.1-1.9-0.1-2.9v70h67.1c36.9,0,67.1-30.2,67.1-67.1
		C185.4,86.3,155.2,56.1,118.3,56.1z M95.6,183.2c-17.1,0-32.4-7.9-42.6-20.3c7.6,5.3,16.9,8.4,27,8.4c25.6,0,46.4-20,46.4-44.6
		c0-0.3,0-0.7,0-1h-25V119h50.1C154.5,152.2,132.9,183.2,95.6,183.2z"/>
	<rect x="213.8" y="132.7" class="st1" width="532.2" height="2.2"/>
	<g>
		<path class="st1" d="M269.8,117.1l25.9-61h6c4.2,0,6.9,1.9,8.5,5.3l20.2,46.6l3.9,9.1h-12.2l-7.7-16.6H295l3.9-9.8h12.7l-10-22.9
			l-20.1,49.4L269.8,117.1L269.8,117.1z"/>
		<polygon class="st1" points="375.6,56.1 375.6,65.9 358.1,65.9 358.1,117.1 346.8,117.1 346.8,65.9 329.3,65.9 329.3,56.1 		"/>
		<polygon class="st1" points="617.3,56.1 617.3,65.9 599.8,65.9 599.8,117.1 588.5,117.1 588.5,65.9 571,65.9 571,56.1 		"/>
		<rect x="623.5" y="56.1" class="st1" width="11.3" height="61"/>
		<path class="st1" d="M214.9,56.1h27.4c7.8,0,15,3.4,20.1,8.9s8.3,13.1,8.3,21.4l0,0c0,8.3-3.2,15.9-8.3,21.4
			c-5.2,5.5-12.3,8.9-20.1,8.9h-27.4h-1.1v-1.1V57.2v-1.1L214.9,56.1L214.9,56.1z M242.3,66.2h-18.9v40.4h18.9
			c5.2,0,9.9-2.3,13.3-5.9c3.4-3.7,5.6-8.7,5.6-14.3l0,0c0-5.6-2.1-10.6-5.6-14.3C252.2,68.5,247.5,66.2,242.3,66.2z"/>
		<path class="st1" d="M700.5,114.5v-10.2c6.1,2.3,13,3.4,20.7,3.4c9.3,0,14-3.1,14-9.4c0-4.6-2.9-6.8-8.6-6.8h-10.4
			c-12.5,0-18.7-5.7-18.7-17.1c0-12.5,8.9-18.8,26.7-18.8c6.8,0,13.3,1,19.4,3v10.2c-6.1-2.3-12.6-3.4-19.4-3.4
			c-10.2,0-15.4,3-15.4,9c0,4.6,2.5,6.8,7.4,6.8h10.4c13.3,0,19.9,5.7,19.9,17.1c0,12.8-8.4,19.2-25.3,19.2
			C713.5,117.5,706.6,116.5,700.5,114.5z"/>
		<path class="st1" d="M690.2,114.4c-2.2,0.9-4.6,1.5-7.1,2s-5.1,0.8-7.9,0.9l0,0c-0.4,0-0.9,0-1.4,0s-1,0-1.4,0
			c-1.5,0-3.2-0.1-4.9-0.2c-1.5-0.1-2.9-0.4-4.2-0.7l0,0c-2.7-0.6-5.2-1.7-7.5-3.1c-2.4-1.4-4.5-3.2-6.4-5.2
			c-2.7-2.8-4.8-6.2-6.3-10c-1.4-3.6-2.2-7.6-2.2-11.7l0,0c0-4.1,0.8-8.1,2.2-11.7c1.5-3.7,3.6-7.1,6.3-10c1.6-1.7,3.4-3.3,5.4-4.5
			c1.9-1.3,4-2.3,6.2-3.1l0,0c1.6-0.6,3.4-1,5.3-1.2c2.1-0.3,4.2-0.4,6.1-0.4l0,0h0.9l0,0c3.1,0,6.1,0.3,8.9,0.8
			c2.8,0.5,5.5,1.2,8,2.2l0.3,0.1V59v10.1v0.6l-0.6-0.2c-2.6-1.1-5.2-1.9-8-2.5s-5.7-0.8-8.6-0.8l0,0h-0.6H672
			c-2.3,0.1-5.2,0.8-7.9,1.9c-2.6,1.1-5.1,2.5-6.6,4c-0.1,0.1-0.3,0.3-0.5,0.5l0,0c-0.1,0.1-0.3,0.3-0.4,0.5
			c-1.6,1.8-2.9,3.9-3.8,6.3c-0.8,2.2-1.3,4.7-1.3,7.3l0,0c0,2.7,0.5,5.2,1.4,7.6s2.3,4.6,4,6.4c0.5,0.5,1,1,1.5,1.4
			c0.5,0.5,1.1,0.9,1.7,1.3l0,0c1.4,1,3.7,2,6.3,2.8c2.1,0.6,4.5,1,6.9,0.9l0,0h0.6l0,0h0.7c2.7-0.1,5.4-0.4,7.9-0.9
			c2.6-0.6,5-1.3,7.4-2.4l0.6-0.2v0.6v9.8v0.3L690.2,114.4z"/>
		<path class="st1" d="M370.7,117.1l25.9-61h6c4.2,0,6.9,1.9,8.5,5.3l24.1,55.7H423l-7.7-16.6h-19.5l3.9-9.8h12.7l-10-22.9
			l-20.1,49.4L370.7,117.1L370.7,117.1z"/>
		<path class="st1" d="M511.8,117.1l25.9-61h6c4.2,0,6.9,1.9,8.5,5.3l24.1,55.7h-12.2l-7.7-16.6h-19.5l3.9-9.8h12.7l-10-22.9
			l-20.1,49.4L511.8,117.1L511.8,117.1z"/>
		<polygon class="st1" points="441.7,117.1 441.7,56.1 453.5,56.1 474.2,102.4 494.5,56.1 505.8,56.1 505.8,117.1 495.3,117.1 
			495.3,74.6 478.8,117.1 469.1,117.1 452.2,74.6 452.2,117.1 		"/>
		<g>
			<g>
				<path class="st1" d="M751.8,65.5c0-2.9,0.9-5.3,2.8-7.3c1.9-2,4.2-3,6.9-3s5,1,6.9,3s2.8,4.4,2.8,7.3c0,2.9-0.9,5.3-2.8,7.3
					c-1.9,2-4.2,3-6.8,3c-2.7,0-5-1-6.9-3C752.7,70.8,751.8,68.3,751.8,65.5z M753.5,65.5c0,2.4,0.8,4.5,2.3,6.1s3.5,2.5,5.7,2.5
					s4.1-0.8,5.7-2.5c1.6-1.7,2.4-3.7,2.4-6.1s-0.8-4.4-2.3-6.1c-1.6-1.6-3.5-2.5-5.7-2.5s-4.1,0.8-5.7,2.5
					C754.2,61,753.5,63.1,753.5,65.5z M759.5,66.5v4.6h-2V59.5h3.8c1.4,0,2.5,0.3,3.3,0.9c0.8,0.6,1.2,1.5,1.2,2.6
					c0,0.6-0.1,1.1-0.4,1.5s-0.7,0.8-1.3,1.1c0.6,0.2,1,0.6,1.3,1.1s0.4,1.1,0.4,1.7v0.8c0,0.4,0,0.7,0,1s0.1,0.5,0.2,0.7v0.2h-2.1
					c-0.1-0.2-0.1-0.5-0.2-0.8c0-0.4,0-0.7,0-1.1v-0.7c0-0.7-0.2-1.1-0.5-1.4s-0.8-0.5-1.5-0.5L759.5,66.5L759.5,66.5z M759.5,64.7
					h2.1c0.6,0,1.1-0.2,1.5-0.4c0.4-0.3,0.6-0.7,0.6-1.2c0-0.7-0.2-1.1-0.5-1.4c-0.4-0.3-1-0.4-1.9-0.4h-1.8L759.5,64.7L759.5,64.7z
					"/>
			</g>
		</g>
	</g>
	<g>
		<path class="st1" d="M213.9,190.3v-41h12.6c5.4,0,9.7,1.6,12.9,4.9c3.3,3.3,4.9,7.6,4.9,12.8v5.6c0,5.2-1.6,9.5-4.9,12.8
			c-3.3,3.3-7.6,4.9-12.9,4.9H213.9z M219.5,153.6v32.3h7c3.8,0,6.8-1.2,9-3.7s3.3-5.7,3.3-9.6v-5.7c0-3.9-1.1-7.1-3.3-9.5
			c-2.2-2.5-5.2-3.7-9-3.7h-7V153.6z"/>
		<path class="st1" d="M271.7,190.3c-0.2-0.9-0.3-1.7-0.4-2.4s-0.2-1.4-0.2-2.1c-1,1.5-2.4,2.7-4,3.7c-1.7,1-3.5,1.5-5.4,1.5
			c-3.2,0-5.6-0.8-7.3-2.4c-1.7-1.6-2.5-3.9-2.5-6.7c0-2.9,1.2-5.2,3.5-6.8c2.4-1.6,5.6-2.5,9.6-2.5h6v-3c0-1.8-0.5-3.2-1.6-4.2
			s-2.6-1.6-4.6-1.6c-1.8,0-3.2,0.5-4.4,1.4c-1.1,0.9-1.7,2-1.7,3.3h-5.3l-0.1-0.2c-0.1-2.2,0.9-4.2,3.1-6.1
			c2.2-1.8,5.1-2.8,8.6-2.8s6.2,0.9,8.3,2.6c2.1,1.8,3.2,4.3,3.2,7.6v14.7c0,1.1,0.1,2.1,0.2,3.2s0.3,2,0.6,3h-5.6V190.3z
			 M262.5,186.2c2,0,3.8-0.5,5.4-1.5s2.7-2.2,3.2-3.5v-4.9h-6.2c-2.2,0-4,0.6-5.4,1.7c-1.3,1.1-2,2.4-2,4c0,1.4,0.4,2.4,1.3,3.2
			C259.6,185.8,260.8,186.2,262.5,186.2z"/>
		<path class="st1" d="M294,152.4v7.4h5.8v4.1H294v18.5c0,1.4,0.3,2.4,0.9,3s1.4,0.9,2.4,0.9c0.3,0,0.7,0,1.1-0.1s0.7-0.2,1-0.3
			l0.7,3.8c-0.4,0.3-1,0.6-1.8,0.8s-1.6,0.3-2.4,0.3c-2.3,0-4.1-0.7-5.4-2c-1.3-1.4-2-3.5-2-6.4v-18.5h-4.9v-4.1h4.9v-7.4H294z"/>
		<path class="st1" d="M327.4,190.3c-0.2-0.9-0.3-1.7-0.4-2.4s-0.2-1.4-0.2-2.1c-1,1.5-2.4,2.7-4,3.7c-1.7,1-3.5,1.5-5.4,1.5
			c-3.2,0-5.6-0.8-7.3-2.4c-1.7-1.6-2.5-3.9-2.5-6.7c0-2.9,1.2-5.2,3.5-6.8c2.4-1.6,5.6-2.5,9.6-2.5h6v-3c0-1.8-0.5-3.2-1.6-4.2
			s-2.6-1.6-4.6-1.6c-1.8,0-3.2,0.5-4.4,1.4c-1.1,0.9-1.7,2-1.7,3.3h-5.3l-0.1-0.2c-0.1-2.2,0.9-4.2,3.1-6.1
			c2.2-1.8,5.1-2.8,8.6-2.8s6.2,0.9,8.3,2.6c2.1,1.8,3.2,4.3,3.2,7.6v14.7c0,1.1,0.1,2.1,0.2,3.2s0.3,2,0.6,3h-5.6V190.3z
			 M318.2,186.2c2,0,3.8-0.5,5.4-1.5s2.7-2.2,3.2-3.5v-4.9h-6.2c-2.2,0-4,0.6-5.4,1.7c-1.3,1.1-2,2.4-2,4c0,1.4,0.4,2.4,1.3,3.2
			C315.3,185.8,316.6,186.2,318.2,186.2z"/>
		<path class="st1" d="M364.2,152v7.8h6.7v2.8h-6.7v19.9c0,2,0.4,3.4,1.1,4.2s1.7,1.3,2.9,1.3c0.5,0,1.1,0,1.6-0.1
			c0.5,0,1.1-0.1,1.8-0.2l0.5,2.5c-0.6,0.2-1.3,0.4-2.1,0.6s-1.6,0.2-2.4,0.2c-2.1,0-3.8-0.7-5-2c-1.2-1.4-1.8-3.5-1.8-6.4v-19.9
			h-5.3v-2.8h5.3V152H364.2z"/>
		<path class="st1" d="M377.7,174.6c0-4.5,1.2-8.2,3.7-11.1c2.5-2.9,5.7-4.3,9.8-4.3c4.1,0,7.3,1.4,9.8,4.3
			c2.5,2.9,3.7,6.6,3.7,11.1v0.9c0,4.5-1.2,8.2-3.7,11.1c-2.5,2.9-5.7,4.3-9.8,4.3c-4.1,0-7.4-1.4-9.8-4.3s-3.7-6.6-3.7-11.1V174.6z
			 M381.1,175.5c0,3.5,0.9,6.5,2.7,8.9c1.8,2.4,4.3,3.6,7.5,3.6c3.1,0,5.6-1.2,7.4-3.6c1.8-2.4,2.7-5.4,2.7-8.9v-0.9
			c0-3.5-0.9-6.4-2.7-8.8c-1.8-2.4-4.3-3.6-7.4-3.6c-3.2,0-5.6,1.2-7.4,3.6s-2.7,5.4-2.7,8.8v0.9H381.1z"/>
		<path class="st1" d="M436.6,190.3H431v-41h5.6V190.3z"/>
		<path class="st1" d="M453,159.8l0.4,4.5c1-1.6,2.3-2.9,3.8-3.8c1.5-0.9,3.3-1.3,5.2-1.3c3.3,0,5.8,1,7.6,2.9
			c1.8,1.9,2.7,4.9,2.7,8.9v19.3h-5.6v-19.1c0-2.7-0.5-4.6-1.6-5.7c-1.1-1.1-2.7-1.7-4.9-1.7c-1.6,0-3,0.4-4.2,1.2s-2.2,1.8-2.9,3.2
			v22.2H448v-30.5L453,159.8L453,159.8z"/>
		<path class="st1" d="M490.2,152.4v7.4h5.8v4.1h-5.8v18.5c0,1.4,0.3,2.4,0.9,3s1.4,0.9,2.4,0.9c0.3,0,0.7,0,1.1-0.1s0.7-0.2,1-0.3
			l0.7,3.8c-0.4,0.3-1,0.6-1.8,0.8s-1.6,0.3-2.4,0.3c-2.3,0-4.1-0.7-5.4-2c-1.3-1.4-2-3.5-2-6.4v-18.5h-4.9v-4.1h4.9v-7.4H490.2z"/>
		<path class="st1" d="M517.5,190.9c-4.2,0-7.6-1.4-10.1-4.2s-3.8-6.5-3.8-11v-1.2c0-4.3,1.3-8,3.9-10.8c2.6-2.9,5.6-4.3,9.2-4.3
			c4.1,0,7.2,1.2,9.3,3.7s3.2,5.8,3.2,9.9v3.5h-19.8l-0.1,0.1c0.1,2.9,0.8,5.3,2.2,7.2c1.4,1.9,3.4,2.8,6,2.8c1.9,0,3.5-0.3,4.9-0.8
			s2.6-1.3,3.7-2.2l2.2,3.6c-1.1,1.1-2.5,2-4.3,2.7C522.2,190.5,520,190.9,517.5,190.9z M516.7,163.6c-1.9,0-3.5,0.8-4.8,2.3
			c-1.3,1.6-2.1,3.5-2.4,5.9l0.1,0.1h14.1v-0.7c0-2.2-0.6-4-1.7-5.5S519,163.6,516.7,163.6z"/>
		<path class="st1" d="M543.4,190.3h-5.6v-44h5.6V190.3z"/>
		<path class="st1" d="M560,190.3h-5.6v-44h5.6V190.3z"/>
		<path class="st1" d="M576.5,152H571v-5.7h5.6L576.5,152L576.5,152z M576.5,190.3H571v-30.5h5.6L576.5,190.3L576.5,190.3z"/>
		<path class="st1" d="M585.9,175.6c0-4.9,1.1-8.9,3.2-11.9c2.1-3,5.1-4.5,8.9-4.5c1.9,0,3.6,0.4,5.1,1.2s2.7,1.9,3.7,3.4l0.7-4h4.4
			v30.7c0,3.9-1.1,6.9-3.4,9c-2.3,2.1-5.6,3.1-9.8,3.1c-1.5,0-3-0.2-4.7-0.6c-1.7-0.4-3.2-1-4.5-1.7l1.4-4.3c1,0.6,2.2,1,3.6,1.4
			c1.4,0.3,2.8,0.5,4.2,0.5c2.7,0,4.7-0.6,5.9-1.8s1.8-3.1,1.8-5.6V187c-1,1.3-2.2,2.2-3.6,2.9c-1.4,0.6-3,1-4.8,1
			c-3.7,0-6.7-1.4-8.8-4.1c-2.1-2.7-3.2-6.2-3.2-10.6v-0.6H585.9z M591.4,176.2c0,3.1,0.6,5.5,1.9,7.4c1.3,1.9,3.3,2.8,5.9,2.8
			c1.7,0,3.1-0.4,4.2-1.1s2.1-1.8,2.8-3.2v-14c-0.7-1.3-1.6-2.3-2.8-3.1c-1.1-0.8-2.5-1.1-4.1-1.1c-2.7,0-4.6,1.1-5.9,3.3
			s-2,5.1-2,8.5L591.4,176.2L591.4,176.2z"/>
		<path class="st1" d="M634.6,190.9c-4.2,0-7.6-1.4-10.1-4.2s-3.8-6.5-3.8-11v-1.2c0-4.3,1.3-8,3.9-10.8c2.6-2.9,5.6-4.3,9.2-4.3
			c4.1,0,7.2,1.2,9.3,3.7s3.2,5.8,3.2,9.9v3.5h-19.8l-0.1,0.1c0.1,2.9,0.8,5.3,2.2,7.2s3.4,2.8,6,2.8c1.9,0,3.5-0.3,4.9-0.8
			s2.6-1.3,3.7-2.2l2.2,3.6c-1.1,1.1-2.5,2-4.3,2.7C639.3,190.5,637.1,190.9,634.6,190.9z M633.8,163.6c-1.9,0-3.5,0.8-4.8,2.3
			c-1.3,1.6-2.1,3.5-2.4,5.9l0.1,0.1h14.1v-0.7c0-2.2-0.6-4-1.7-5.5S636,163.6,633.8,163.6z"/>
		<path class="st1" d="M659.5,159.8l0.4,4.5c1-1.6,2.3-2.9,3.8-3.8c1.5-0.9,3.3-1.3,5.2-1.3c3.3,0,5.8,1,7.6,2.9s2.7,4.9,2.7,8.9
			v19.3h-5.6v-19.1c0-2.7-0.5-4.6-1.6-5.7s-2.7-1.7-4.9-1.7c-1.6,0-3,0.4-4.2,1.2s-2.2,1.8-2.9,3.2v22.2h-5.6v-30.5L659.5,159.8
			L659.5,159.8z"/>
		<path class="st1" d="M701.7,186.5c1.8,0,3.5-0.6,4.9-1.7c1.4-1.1,2.1-2.5,2.1-4.2h5l0.1,0.2c0.1,2.6-1.1,5-3.5,7
			c-2.4,2.1-5.3,3.1-8.5,3.1c-4.4,0-7.8-1.4-10.2-4.3s-3.5-6.5-3.5-10.9v-1.2c0-4.3,1.2-8,3.5-10.9c2.4-2.9,5.7-4.4,10.2-4.4
			c3.6,0,6.5,1.1,8.8,3.2c2.3,2.1,3.4,4.7,3.3,7.8l-0.1,0.2h-5c0-1.9-0.7-3.4-2-4.7s-3-2-5-2c-2.9,0-5,1-6.2,3.1
			c-1.3,2.1-1.9,4.7-1.9,7.7v1.2c0,3.1,0.6,5.7,1.9,7.8C696.7,185.5,698.8,186.5,701.7,186.5z"/>
		<path class="st1" d="M734.7,190.9c-4.2,0-7.6-1.4-10.1-4.2s-3.8-6.5-3.8-11v-1.2c0-4.3,1.3-8,3.9-10.8c2.6-2.9,5.6-4.3,9.2-4.3
			c4.1,0,7.2,1.2,9.3,3.7s3.2,5.8,3.2,9.9v3.5h-19.8l-0.1,0.1c0.1,2.9,0.8,5.3,2.2,7.2s3.4,2.8,6,2.8c1.9,0,3.5-0.3,4.9-0.8
			s2.6-1.3,3.7-2.2l2.2,3.6c-1.1,1.1-2.5,2-4.3,2.7C739.4,190.5,737.2,190.9,734.7,190.9z M733.8,163.6c-1.9,0-3.5,0.8-4.8,2.3
			c-1.3,1.6-2.1,3.5-2.4,5.9l0.1,0.1h14.1v-0.7c0-2.2-0.6-4-1.7-5.5C737.8,164.3,736.1,163.6,733.8,163.6z"/>
	</g>
</g>
</svg>
